<svg width="213" height="13" viewBox="0 0 213 13" fill="none" xmlns="http://www.w3.org/2000/svg">
<path d="M0 0.925781H1.42969V9.5625H0V0.925781ZM5.03906 5.67188H1.91016V4.71094H5.03906V5.67188ZM5.40234 0.925781V1.99219H1.91016V0.925781H5.40234ZM13.9688 9.5625H12.5156L10.2773 3.09375L8.01562 9.5625H6.55078L9.57422 0.9375H10.9688L13.9688 9.5625ZM11.0508 6.82031L11.3906 7.76953H9.15234L9.48047 6.82031H11.0508ZM15.7617 0.925781H17.168V9.5625H15.7617V0.925781ZM21.6211 9.5625H20.1328L18.5039 6.43359C18.4805 6.43359 18.4531 6.4375 18.4219 6.44531C18.3984 6.44531 18.3594 6.44531 18.3047 6.44531C18.25 6.44531 18.168 6.44531 18.0586 6.44531C17.957 6.44531 17.8203 6.44531 17.6484 6.44531V5.41406H18.4453C18.6172 5.41406 18.7891 5.38672 18.9609 5.33203C19.1328 5.26953 19.2891 5.17188 19.4297 5.03906C19.5703 4.90625 19.6836 4.72266 19.7695 4.48828C19.8555 4.24609 19.8984 3.94922 19.8984 3.59766C19.8984 3.45703 19.8789 3.29688 19.8398 3.11719C19.8008 2.92969 19.7188 2.75391 19.5938 2.58984C19.4766 2.41797 19.3086 2.27734 19.0898 2.16797C18.8711 2.05078 18.582 1.99219 18.2227 1.99219H17.6484V0.925781H18.2461C18.6133 0.925781 18.9766 0.984375 19.3359 1.10156C19.6953 1.21875 20.0156 1.39453 20.2969 1.62891C20.5859 1.86328 20.8164 2.14844 20.9883 2.48438C21.168 2.8125 21.2578 3.18359 21.2578 3.59766C21.2578 4.22266 21.1133 4.75391 20.8242 5.19141C20.5352 5.62891 20.1445 5.95312 19.6523 6.16406L21.6211 9.5625ZM29.6133 0.925781V1.88672H27.0352V9.5625H25.6172V1.88672H23.0391V0.925781H29.6133ZM38.1562 5.54297V6.72656H34.4297V5.54297H38.1562ZM43.4766 0.925781H44.9062V9.5625H43.4766V0.925781ZM48.5156 5.67188H45.3867V4.71094H48.5156V5.67188ZM48.8789 0.925781V1.99219H45.3867V0.925781H48.8789ZM51.7148 9.5625H50.2852V2.95312H51.7148V9.5625ZM51.8438 0.84375C51.8438 1.07812 51.7617 1.27734 51.5977 1.44141C51.4336 1.59766 51.2344 1.67578 51 1.67578C50.7656 1.67578 50.5664 1.59375 50.4023 1.42969C50.2461 1.26562 50.168 1.07031 50.168 0.84375C50.168 0.609375 50.25 0.410156 50.4141 0.246094C50.5781 0.0820312 50.7734 0 51 0C51.2344 0 51.4336 0.0820312 51.5977 0.246094C51.7617 0.410156 51.8438 0.609375 51.8438 0.84375ZM54.9727 2.95312L55.125 3.62109V9.5625H53.707V2.95312H54.9727ZM58.6289 3.67969C58.7617 3.8125 58.8633 3.96875 58.9336 4.14844C59.0117 4.32031 59.0664 4.50391 59.0977 4.69922C59.1367 4.88672 59.1602 5.07812 59.168 5.27344C59.1758 5.46875 59.1797 5.66016 59.1797 5.84766V9.32812V9.5625H57.75V5.96484C57.75 5.69922 57.7383 5.44531 57.7148 5.20312C57.6914 4.96094 57.6367 4.74609 57.5508 4.55859C57.4648 4.37109 57.3477 4.22656 57.1992 4.125C57.0508 4.01562 56.8438 3.96094 56.5781 3.96094C56.4688 3.96094 56.3203 3.98047 56.1328 4.01953C55.9531 4.05078 55.7773 4.10547 55.6055 4.18359V3.28125C55.8164 3.17188 56.043 3.07812 56.2852 3C56.5352 2.92188 56.7773 2.88281 57.0117 2.88281C57.3633 2.88281 57.6602 2.95703 57.9023 3.10547C58.1445 3.24609 58.3867 3.4375 58.6289 3.67969ZM62.2852 7.57031C62.2852 7.92188 62.3555 8.18359 62.4961 8.35547C62.6445 8.52734 62.8555 8.62891 63.1289 8.66016V9.60938C63.0977 9.61719 63.0469 9.62109 62.9766 9.62109C62.7109 9.62109 62.4531 9.58594 62.2031 9.51562C61.9609 9.44531 61.7461 9.33203 61.5586 9.17578C61.3711 9.01953 61.2227 8.8125 61.1133 8.55469C61.0117 8.29688 60.9609 7.98047 60.9609 7.60547C60.9609 7.24609 61.0352 6.9375 61.1836 6.67969C61.3398 6.41406 61.5352 6.19922 61.7695 6.03516C62.0117 5.86328 62.2852 5.73828 62.5898 5.66016C62.8945 5.57422 63.2031 5.53125 63.5156 5.53125H64.0312V6.36328H63.7734C63.6172 6.36328 63.4531 6.37891 63.2812 6.41016C63.1094 6.44141 62.9492 6.5 62.8008 6.58594C62.6523 6.67188 62.5273 6.79688 62.4258 6.96094C62.332 7.11719 62.2852 7.32031 62.2852 7.57031ZM65.9297 7.60547C65.9297 7.66797 65.9336 7.76172 65.9414 7.88672C65.9492 8.00391 65.9648 8.125 65.9883 8.25C66.0117 8.375 66.0469 8.48828 66.0938 8.58984C66.1484 8.69141 66.2188 8.75781 66.3047 8.78906L65.9297 9.57422C65.8281 9.57422 65.7188 9.55078 65.6016 9.50391C65.4922 9.45703 65.3828 9.39062 65.2734 9.30469C65.1719 9.21875 65.082 9.125 65.0039 9.02344C64.9336 8.91406 64.8789 8.79688 64.8398 8.67188C64.7617 8.86719 64.6055 9.04297 64.3711 9.19922C64.1445 9.34766 63.8906 9.45703 63.6094 9.52734V8.63672C63.7969 8.59766 63.9648 8.52344 64.1133 8.41406C64.2695 8.29688 64.4023 8.16016 64.5117 8.00391V5.53125C64.5117 5.14844 64.4922 4.84375 64.4531 4.61719C64.4141 4.39062 64.3477 4.22656 64.2539 4.125C64.1602 4.01562 64.043 3.94922 63.9023 3.92578C63.7695 3.89453 63.6094 3.87891 63.4219 3.87891C63.25 3.87891 63.0859 3.90234 62.9297 3.94922C62.7812 3.98828 62.6406 4.03906 62.5078 4.10156C62.3828 4.15625 62.2695 4.21875 62.168 4.28906C62.0742 4.35938 62.0039 4.41406 61.957 4.45312L61.4297 3.64453C61.5078 3.55859 61.625 3.47266 61.7812 3.38672C61.9375 3.29297 62.1172 3.21094 62.3203 3.14062C62.5234 3.07031 62.7422 3.01562 62.9766 2.97656C63.2188 2.92969 63.4688 2.90625 63.7266 2.90625C63.9609 2.90625 64.1875 2.92969 64.4062 2.97656C64.6328 3.02344 64.8359 3.10156 65.0156 3.21094C65.2031 3.32031 65.3633 3.46875 65.4961 3.65625C65.6367 3.83594 65.7344 4.0625 65.7891 4.33594C65.8438 4.60938 65.8789 4.88672 65.8945 5.16797C65.918 5.44141 65.9297 5.71484 65.9297 5.98828V7.51172V7.60547ZM69.5742 7.54688C69.5742 7.8125 69.6094 8.02344 69.6797 8.17969C69.75 8.32812 69.8477 8.44141 69.9727 8.51953C70.0977 8.58984 70.2383 8.63672 70.3945 8.66016C70.5586 8.68359 70.7344 8.69531 70.9219 8.69531V9.5625C70.8203 9.57812 70.7148 9.58984 70.6055 9.59766C70.5195 9.60547 70.418 9.60938 70.3008 9.60938C70.1836 9.61719 70.0664 9.62109 69.9492 9.62109C69.832 9.62109 69.7148 9.61719 69.5977 9.60938C69.4805 9.60156 69.375 9.58984 69.2812 9.57422C69.0156 9.51953 68.8086 9.40234 68.6602 9.22266C68.5117 9.04297 68.3984 8.84375 68.3203 8.625C68.2422 8.39844 68.1914 8.17969 68.168 7.96875C68.1523 7.75781 68.1445 7.59375 68.1445 7.47656V7.33594V0.457031H69.5742V7.54688ZM73.8281 7.54688C73.8281 7.8125 73.8633 8.02344 73.9336 8.17969C74.0039 8.32812 74.1016 8.44141 74.2266 8.51953C74.3516 8.58984 74.4922 8.63672 74.6484 8.66016C74.8125 8.68359 74.9883 8.69531 75.1758 8.69531V9.5625C75.0742 9.57812 74.9688 9.58984 74.8594 9.59766C74.7734 9.60547 74.6719 9.60938 74.5547 9.60938C74.4375 9.61719 74.3203 9.62109 74.2031 9.62109C74.0859 9.62109 73.9688 9.61719 73.8516 9.60938C73.7344 9.60156 73.6289 9.58984 73.5352 9.57422C73.2695 9.51953 73.0625 9.40234 72.9141 9.22266C72.7656 9.04297 72.6523 8.84375 72.5742 8.625C72.4961 8.39844 72.4453 8.17969 72.4219 7.96875C72.4062 7.75781 72.3984 7.59375 72.3984 7.47656V7.33594V0.457031H73.8281V7.54688ZM82.9922 2.95312C82.5625 4.10156 82.1797 5.12109 81.8438 6.01172C81.5078 6.89453 81.2148 7.67188 80.9648 8.34375C80.7148 9.00781 80.4922 9.57031 80.2969 10.0312C80.1094 10.4922 79.9336 10.875 79.7695 11.1797C79.6133 11.4922 79.4648 11.7344 79.3242 11.9062C79.1836 12.0859 79.0391 12.2227 78.8906 12.3164C78.7422 12.4102 78.5781 12.4648 78.3984 12.4805C78.2266 12.5039 78.0273 12.5156 77.8008 12.5156C77.7305 12.5156 77.6484 12.5039 77.5547 12.4805C77.4609 12.4648 77.3672 12.4414 77.2734 12.4102C77.1875 12.3867 77.1094 12.3594 77.0391 12.3281C76.9688 12.3047 76.9219 12.2891 76.8984 12.2812C76.9297 12.1406 76.9609 12.0078 76.9922 11.8828C77.0156 11.7734 77.0391 11.668 77.0625 11.5664C77.0938 11.4727 77.1172 11.4062 77.1328 11.3672C77.1953 11.3672 77.2891 11.3867 77.4141 11.4258C77.5469 11.4648 77.6445 11.4844 77.707 11.4844C77.832 11.4844 77.9414 11.4766 78.0352 11.4609C78.1367 11.4531 78.2266 11.418 78.3047 11.3555C78.3828 11.3008 78.457 11.2148 78.5273 11.0977C78.5977 10.9883 78.6758 10.8281 78.7617 10.6172L79.207 9.5625L81.5625 2.95312H82.9922ZM78.9609 8.94141L76.5 2.95312H77.918L79.6055 7.39453L79.4414 7.79297L78.9609 8.94141ZM94.8516 9.5625H93.3984L91.1602 3.09375L88.8984 9.5625H87.4336L90.457 0.9375H91.8516L94.8516 9.5625ZM91.9336 6.82031L92.2734 7.76953H90.0352L90.3633 6.82031H91.9336ZM99.8555 0.925781H101.262V9.5625H99.8555V0.925781ZM105.715 9.5625H104.227L102.598 6.43359C102.574 6.43359 102.547 6.4375 102.516 6.44531C102.492 6.44531 102.453 6.44531 102.398 6.44531C102.344 6.44531 102.262 6.44531 102.152 6.44531C102.051 6.44531 101.914 6.44531 101.742 6.44531V5.41406H102.539C102.711 5.41406 102.883 5.38672 103.055 5.33203C103.227 5.26953 103.383 5.17188 103.523 5.03906C103.664 4.90625 103.777 4.72266 103.863 4.48828C103.949 4.24609 103.992 3.94922 103.992 3.59766C103.992 3.45703 103.973 3.29688 103.934 3.11719C103.895 2.92969 103.812 2.75391 103.688 2.58984C103.57 2.41797 103.402 2.27734 103.184 2.16797C102.965 2.05078 102.676 1.99219 102.316 1.99219H101.742V0.925781H102.34C102.707 0.925781 103.07 0.984375 103.43 1.10156C103.789 1.21875 104.109 1.39453 104.391 1.62891C104.68 1.86328 104.91 2.14844 105.082 2.48438C105.262 2.8125 105.352 3.18359 105.352 3.59766C105.352 4.22266 105.207 4.75391 104.918 5.19141C104.629 5.62891 104.238 5.95312 103.746 6.16406L105.715 9.5625ZM110.613 2.89453C111.035 2.93359 111.414 3.04688 111.75 3.23438C112.094 3.42188 112.387 3.66406 112.629 3.96094C112.871 4.25781 113.055 4.59766 113.18 4.98047C113.312 5.36328 113.379 5.76172 113.379 6.17578C113.379 6.36328 113.367 6.55078 113.344 6.73828H109.324V5.70703H112.031C112.031 5.50391 111.996 5.30859 111.926 5.12109C111.863 4.93359 111.766 4.76172 111.633 4.60547C111.508 4.44141 111.359 4.30469 111.188 4.19531C111.016 4.08594 110.824 4.01953 110.613 3.99609V2.89453ZM110.566 8.46094C110.652 8.46094 110.758 8.45312 110.883 8.4375C111.016 8.41406 111.152 8.37891 111.293 8.33203C111.441 8.27734 111.586 8.21094 111.727 8.13281C111.875 8.05469 112.004 7.96094 112.113 7.85156L112.629 8.63672C112.371 8.95703 112.07 9.19922 111.727 9.36328C111.383 9.52734 110.945 9.60938 110.414 9.60938C109.984 9.60938 109.582 9.52344 109.207 9.35156C108.832 9.17188 108.512 8.92969 108.246 8.625C107.98 8.32031 107.77 7.96484 107.613 7.55859C107.457 7.15234 107.379 6.71484 107.379 6.24609C107.379 5.80078 107.449 5.37891 107.59 4.98047C107.738 4.58203 107.938 4.23438 108.188 3.9375C108.438 3.63281 108.727 3.38672 109.055 3.19922C109.391 3.01172 109.75 2.90625 110.133 2.88281V4.00781C109.844 4.0625 109.605 4.17969 109.418 4.35938C109.23 4.53906 109.082 4.74609 108.973 4.98047C108.871 5.20703 108.797 5.44141 108.75 5.68359C108.711 5.92578 108.691 6.13281 108.691 6.30469C108.691 6.60938 108.727 6.89453 108.797 7.16016C108.875 7.41797 108.992 7.64453 109.148 7.83984C109.305 8.02734 109.496 8.17969 109.723 8.29688C109.957 8.40625 110.238 8.46094 110.566 8.46094ZM116.73 7.54688C116.73 7.8125 116.766 8.02344 116.836 8.17969C116.906 8.32812 117.004 8.44141 117.129 8.51953C117.254 8.58984 117.395 8.63672 117.551 8.66016C117.715 8.68359 117.891 8.69531 118.078 8.69531V9.5625C117.977 9.57812 117.871 9.58984 117.762 9.59766C117.676 9.60547 117.574 9.60938 117.457 9.60938C117.34 9.61719 117.223 9.62109 117.105 9.62109C116.988 9.62109 116.871 9.61719 116.754 9.60938C116.637 9.60156 116.531 9.58984 116.438 9.57422C116.172 9.51953 115.965 9.40234 115.816 9.22266C115.668 9.04297 115.555 8.84375 115.477 8.625C115.398 8.39844 115.348 8.17969 115.324 7.96875C115.309 7.75781 115.301 7.59375 115.301 7.47656V7.33594V0.457031H116.73V7.54688ZM120.996 9.5625H119.566V2.95312H120.996V9.5625ZM121.125 0.84375C121.125 1.07812 121.043 1.27734 120.879 1.44141C120.715 1.59766 120.516 1.67578 120.281 1.67578C120.047 1.67578 119.848 1.59375 119.684 1.42969C119.527 1.26562 119.449 1.07031 119.449 0.84375C119.449 0.609375 119.531 0.410156 119.695 0.246094C119.859 0.0820312 120.055 0 120.281 0C120.516 0 120.715 0.0820312 120.879 0.246094C121.043 0.410156 121.125 0.609375 121.125 0.84375ZM124.137 7.57031C124.137 7.92188 124.207 8.18359 124.348 8.35547C124.496 8.52734 124.707 8.62891 124.98 8.66016V9.60938C124.949 9.61719 124.898 9.62109 124.828 9.62109C124.562 9.62109 124.305 9.58594 124.055 9.51562C123.812 9.44531 123.598 9.33203 123.41 9.17578C123.223 9.01953 123.074 8.8125 122.965 8.55469C122.863 8.29688 122.812 7.98047 122.812 7.60547C122.812 7.24609 122.887 6.9375 123.035 6.67969C123.191 6.41406 123.387 6.19922 123.621 6.03516C123.863 5.86328 124.137 5.73828 124.441 5.66016C124.746 5.57422 125.055 5.53125 125.367 5.53125H125.883V6.36328H125.625C125.469 6.36328 125.305 6.37891 125.133 6.41016C124.961 6.44141 124.801 6.5 124.652 6.58594C124.504 6.67188 124.379 6.79688 124.277 6.96094C124.184 7.11719 124.137 7.32031 124.137 7.57031ZM127.781 7.60547C127.781 7.66797 127.785 7.76172 127.793 7.88672C127.801 8.00391 127.816 8.125 127.84 8.25C127.863 8.375 127.898 8.48828 127.945 8.58984C128 8.69141 128.07 8.75781 128.156 8.78906L127.781 9.57422C127.68 9.57422 127.57 9.55078 127.453 9.50391C127.344 9.45703 127.234 9.39062 127.125 9.30469C127.023 9.21875 126.934 9.125 126.855 9.02344C126.785 8.91406 126.73 8.79688 126.691 8.67188C126.613 8.86719 126.457 9.04297 126.223 9.19922C125.996 9.34766 125.742 9.45703 125.461 9.52734V8.63672C125.648 8.59766 125.816 8.52344 125.965 8.41406C126.121 8.29688 126.254 8.16016 126.363 8.00391V5.53125C126.363 5.14844 126.344 4.84375 126.305 4.61719C126.266 4.39062 126.199 4.22656 126.105 4.125C126.012 4.01562 125.895 3.94922 125.754 3.92578C125.621 3.89453 125.461 3.87891 125.273 3.87891C125.102 3.87891 124.938 3.90234 124.781 3.94922C124.633 3.98828 124.492 4.03906 124.359 4.10156C124.234 4.15625 124.121 4.21875 124.02 4.28906C123.926 4.35938 123.855 4.41406 123.809 4.45312L123.281 3.64453C123.359 3.55859 123.477 3.47266 123.633 3.38672C123.789 3.29297 123.969 3.21094 124.172 3.14062C124.375 3.07031 124.594 3.01562 124.828 2.97656C125.07 2.92969 125.32 2.90625 125.578 2.90625C125.812 2.90625 126.039 2.92969 126.258 2.97656C126.484 3.02344 126.688 3.10156 126.867 3.21094C127.055 3.32031 127.215 3.46875 127.348 3.65625C127.488 3.83594 127.586 4.0625 127.641 4.33594C127.695 4.60938 127.73 4.88672 127.746 5.16797C127.77 5.44141 127.781 5.71484 127.781 5.98828V7.51172V7.60547ZM130.078 0.457031H131.496V8.77734C131.488 8.88672 131.477 9.01172 131.461 9.15234C131.445 9.29297 131.434 9.42969 131.426 9.5625H130.078V0.457031ZM135.855 4.95703C135.949 5.31641 135.996 5.71094 135.996 6.14062C135.996 6.58594 135.941 7.01953 135.832 7.44141C135.73 7.86328 135.57 8.23828 135.352 8.56641C135.141 8.88672 134.871 9.14453 134.543 9.33984C134.223 9.52734 133.844 9.62109 133.406 9.62109C133.133 9.62109 132.871 9.58984 132.621 9.52734C132.371 9.46484 132.156 9.37891 131.977 9.26953V8.05078C132.094 8.18359 132.23 8.29297 132.387 8.37891C132.551 8.46484 132.73 8.50781 132.926 8.50781C133.16 8.50781 133.371 8.44922 133.559 8.33203C133.754 8.21484 133.918 8.05859 134.051 7.86328C134.191 7.66016 134.301 7.42188 134.379 7.14844C134.465 6.875 134.508 6.58203 134.508 6.26953C134.508 5.96484 134.469 5.67578 134.391 5.40234C134.32 5.12891 134.219 4.88672 134.086 4.67578C133.961 4.46484 133.805 4.29688 133.617 4.17188C133.43 4.04688 133.219 3.98438 132.984 3.98438C132.781 3.98438 132.594 4.02734 132.422 4.11328C132.258 4.19141 132.109 4.30859 131.977 4.46484V3.21094C132.156 3.10938 132.355 3.03125 132.574 2.97656C132.793 2.92188 133.02 2.89453 133.254 2.89453C133.512 2.89453 133.773 2.92969 134.039 3C134.305 3.07031 134.551 3.1875 134.777 3.35156C135.012 3.51562 135.223 3.73047 135.41 3.99609C135.605 4.26172 135.754 4.58203 135.855 4.95703ZM138.996 7.54688C138.996 7.8125 139.031 8.02344 139.102 8.17969C139.172 8.32812 139.27 8.44141 139.395 8.51953C139.52 8.58984 139.66 8.63672 139.816 8.66016C139.98 8.68359 140.156 8.69531 140.344 8.69531V9.5625C140.242 9.57812 140.137 9.58984 140.027 9.59766C139.941 9.60547 139.84 9.60938 139.723 9.60938C139.605 9.61719 139.488 9.62109 139.371 9.62109C139.254 9.62109 139.137 9.61719 139.02 9.60938C138.902 9.60156 138.797 9.58984 138.703 9.57422C138.438 9.51953 138.23 9.40234 138.082 9.22266C137.934 9.04297 137.82 8.84375 137.742 8.625C137.664 8.39844 137.613 8.17969 137.59 7.96875C137.574 7.75781 137.566 7.59375 137.566 7.47656V7.33594V0.457031H138.996V7.54688ZM144.914 2.89453C145.336 2.93359 145.715 3.04688 146.051 3.23438C146.395 3.42188 146.688 3.66406 146.93 3.96094C147.172 4.25781 147.355 4.59766 147.48 4.98047C147.613 5.36328 147.68 5.76172 147.68 6.17578C147.68 6.36328 147.668 6.55078 147.645 6.73828H143.625V5.70703H146.332C146.332 5.50391 146.297 5.30859 146.227 5.12109C146.164 4.93359 146.066 4.76172 145.934 4.60547C145.809 4.44141 145.66 4.30469 145.488 4.19531C145.316 4.08594 145.125 4.01953 144.914 3.99609V2.89453ZM144.867 8.46094C144.953 8.46094 145.059 8.45312 145.184 8.4375C145.316 8.41406 145.453 8.37891 145.594 8.33203C145.742 8.27734 145.887 8.21094 146.027 8.13281C146.176 8.05469 146.305 7.96094 146.414 7.85156L146.93 8.63672C146.672 8.95703 146.371 9.19922 146.027 9.36328C145.684 9.52734 145.246 9.60938 144.715 9.60938C144.285 9.60938 143.883 9.52344 143.508 9.35156C143.133 9.17188 142.812 8.92969 142.547 8.625C142.281 8.32031 142.07 7.96484 141.914 7.55859C141.758 7.15234 141.68 6.71484 141.68 6.24609C141.68 5.80078 141.75 5.37891 141.891 4.98047C142.039 4.58203 142.238 4.23438 142.488 3.9375C142.738 3.63281 143.027 3.38672 143.355 3.19922C143.691 3.01172 144.051 2.90625 144.434 2.88281V4.00781C144.145 4.0625 143.906 4.17969 143.719 4.35938C143.531 4.53906 143.383 4.74609 143.273 4.98047C143.172 5.20703 143.098 5.44141 143.051 5.68359C143.012 5.92578 142.992 6.13281 142.992 6.30469C142.992 6.60938 143.027 6.89453 143.098 7.16016C143.176 7.41797 143.293 7.64453 143.449 7.83984C143.605 8.02734 143.797 8.17969 144.023 8.29688C144.258 8.40625 144.539 8.46094 144.867 8.46094ZM159 0.925781V1.88672H156.422V9.5625H155.004V1.88672H152.426V0.925781H159ZM162.023 9.5625H160.594V2.95312H162.023V9.5625ZM162.152 0.84375C162.152 1.07812 162.07 1.27734 161.906 1.44141C161.742 1.59766 161.543 1.67578 161.309 1.67578C161.074 1.67578 160.875 1.59375 160.711 1.42969C160.555 1.26562 160.477 1.07031 160.477 0.84375C160.477 0.609375 160.559 0.410156 160.723 0.246094C160.887 0.0820312 161.082 0 161.309 0C161.543 0 161.742 0.0820312 161.906 0.246094C162.07 0.410156 162.152 0.609375 162.152 0.84375ZM165.293 2.95312L165.445 3.63281V9.5625H164.016V2.95312H165.293ZM170.824 2.88281C171.09 2.88281 171.34 2.9375 171.574 3.04688C171.809 3.14844 172.012 3.29688 172.184 3.49219C172.363 3.6875 172.5 3.92188 172.594 4.19531C172.695 4.46094 172.746 4.75 172.746 5.0625V9.5625H171.34V5.96484C171.34 5.69922 171.336 5.44922 171.328 5.21484C171.328 4.97266 171.305 4.75781 171.258 4.57031C171.211 4.38281 171.133 4.23828 171.023 4.13672C170.922 4.02734 170.762 3.97266 170.543 3.97266C170.488 3.97266 170.371 3.98438 170.191 4.00781C170.012 4.03125 169.805 4.09766 169.57 4.20703V3.28125C169.781 3.15625 169.996 3.05859 170.215 2.98828C170.434 2.91797 170.637 2.88281 170.824 2.88281ZM168.797 3.78516C168.891 3.92578 168.957 4.07812 168.996 4.24219C169.043 4.39844 169.07 4.5625 169.078 4.73438C169.094 4.90625 169.098 5.08594 169.09 5.27344C169.09 5.45312 169.09 5.64453 169.09 5.84766V9.5625H167.672V5.96484C167.672 5.69922 167.672 5.44922 167.672 5.21484C167.672 4.97266 167.648 4.75781 167.602 4.57031C167.555 4.38281 167.477 4.23828 167.367 4.13672C167.258 4.02734 167.098 3.97266 166.887 3.97266C166.793 3.97266 166.652 3.99219 166.465 4.03125C166.285 4.0625 166.105 4.12109 165.926 4.20703V3.28125C166.113 3.17188 166.312 3.08203 166.523 3.01172C166.742 2.94141 166.957 2.90625 167.168 2.90625C167.527 2.90625 167.828 2.98047 168.07 3.12891C168.32 3.27734 168.562 3.49609 168.797 3.78516ZM177.832 2.89453C178.254 2.93359 178.633 3.04688 178.969 3.23438C179.312 3.42188 179.605 3.66406 179.848 3.96094C180.09 4.25781 180.273 4.59766 180.398 4.98047C180.531 5.36328 180.598 5.76172 180.598 6.17578C180.598 6.36328 180.586 6.55078 180.562 6.73828H176.543V5.70703H179.25C179.25 5.50391 179.215 5.30859 179.145 5.12109C179.082 4.93359 178.984 4.76172 178.852 4.60547C178.727 4.44141 178.578 4.30469 178.406 4.19531C178.234 4.08594 178.043 4.01953 177.832 3.99609V2.89453ZM177.785 8.46094C177.871 8.46094 177.977 8.45312 178.102 8.4375C178.234 8.41406 178.371 8.37891 178.512 8.33203C178.66 8.27734 178.805 8.21094 178.945 8.13281C179.094 8.05469 179.223 7.96094 179.332 7.85156L179.848 8.63672C179.59 8.95703 179.289 9.19922 178.945 9.36328C178.602 9.52734 178.164 9.60938 177.633 9.60938C177.203 9.60938 176.801 9.52344 176.426 9.35156C176.051 9.17188 175.73 8.92969 175.465 8.625C175.199 8.32031 174.988 7.96484 174.832 7.55859C174.676 7.15234 174.598 6.71484 174.598 6.24609C174.598 5.80078 174.668 5.37891 174.809 4.98047C174.957 4.58203 175.156 4.23438 175.406 3.9375C175.656 3.63281 175.945 3.38672 176.273 3.19922C176.609 3.01172 176.969 2.90625 177.352 2.88281V4.00781C177.062 4.0625 176.824 4.17969 176.637 4.35938C176.449 4.53906 176.301 4.74609 176.191 4.98047C176.09 5.20703 176.016 5.44141 175.969 5.68359C175.93 5.92578 175.91 6.13281 175.91 6.30469C175.91 6.60938 175.945 6.89453 176.016 7.16016C176.094 7.41797 176.211 7.64453 176.367 7.83984C176.523 8.02734 176.715 8.17969 176.941 8.29688C177.176 8.40625 177.457 8.46094 177.785 8.46094ZM184.43 7.55859C184.43 7.82422 184.465 8.03125 184.535 8.17969C184.605 8.32812 184.703 8.44141 184.828 8.51953C184.961 8.59766 185.105 8.64844 185.262 8.67188C185.426 8.6875 185.598 8.69531 185.777 8.69531V9.5625C185.676 9.57812 185.574 9.58984 185.473 9.59766C185.387 9.60547 185.281 9.60938 185.156 9.60938C185.039 9.61719 184.922 9.62109 184.805 9.62109C184.688 9.62109 184.566 9.61719 184.441 9.60938C184.324 9.60156 184.223 9.58984 184.137 9.57422C183.871 9.52734 183.664 9.41406 183.516 9.23438C183.367 9.04688 183.254 8.84375 183.176 8.625C183.105 8.39844 183.059 8.17969 183.035 7.96875C183.02 7.75781 183.012 7.59375 183.012 7.47656V3.91406H182.145V2.95312H183.012V1.07812H184.43V2.95312H185.484V3.91406H184.43V7.55859ZM188.59 7.57031C188.59 7.92188 188.66 8.18359 188.801 8.35547C188.949 8.52734 189.16 8.62891 189.434 8.66016V9.60938C189.402 9.61719 189.352 9.62109 189.281 9.62109C189.016 9.62109 188.758 9.58594 188.508 9.51562C188.266 9.44531 188.051 9.33203 187.863 9.17578C187.676 9.01953 187.527 8.8125 187.418 8.55469C187.316 8.29688 187.266 7.98047 187.266 7.60547C187.266 7.24609 187.34 6.9375 187.488 6.67969C187.645 6.41406 187.84 6.19922 188.074 6.03516C188.316 5.86328 188.59 5.73828 188.895 5.66016C189.199 5.57422 189.508 5.53125 189.82 5.53125H190.336V6.36328H190.078C189.922 6.36328 189.758 6.37891 189.586 6.41016C189.414 6.44141 189.254 6.5 189.105 6.58594C188.957 6.67188 188.832 6.79688 188.73 6.96094C188.637 7.11719 188.59 7.32031 188.59 7.57031ZM192.234 7.60547C192.234 7.66797 192.238 7.76172 192.246 7.88672C192.254 8.00391 192.27 8.125 192.293 8.25C192.316 8.375 192.352 8.48828 192.398 8.58984C192.453 8.69141 192.523 8.75781 192.609 8.78906L192.234 9.57422C192.133 9.57422 192.023 9.55078 191.906 9.50391C191.797 9.45703 191.688 9.39062 191.578 9.30469C191.477 9.21875 191.387 9.125 191.309 9.02344C191.238 8.91406 191.184 8.79688 191.145 8.67188C191.066 8.86719 190.91 9.04297 190.676 9.19922C190.449 9.34766 190.195 9.45703 189.914 9.52734V8.63672C190.102 8.59766 190.27 8.52344 190.418 8.41406C190.574 8.29688 190.707 8.16016 190.816 8.00391V5.53125C190.816 5.14844 190.797 4.84375 190.758 4.61719C190.719 4.39062 190.652 4.22656 190.559 4.125C190.465 4.01562 190.348 3.94922 190.207 3.92578C190.074 3.89453 189.914 3.87891 189.727 3.87891C189.555 3.87891 189.391 3.90234 189.234 3.94922C189.086 3.98828 188.945 4.03906 188.812 4.10156C188.688 4.15625 188.574 4.21875 188.473 4.28906C188.379 4.35938 188.309 4.41406 188.262 4.45312L187.734 3.64453C187.812 3.55859 187.93 3.47266 188.086 3.38672C188.242 3.29297 188.422 3.21094 188.625 3.14062C188.828 3.07031 189.047 3.01562 189.281 2.97656C189.523 2.92969 189.773 2.90625 190.031 2.90625C190.266 2.90625 190.492 2.92969 190.711 2.97656C190.938 3.02344 191.141 3.10156 191.32 3.21094C191.508 3.32031 191.668 3.46875 191.801 3.65625C191.941 3.83594 192.039 4.0625 192.094 4.33594C192.148 4.60938 192.184 4.88672 192.199 5.16797C192.223 5.44141 192.234 5.71484 192.234 5.98828V7.51172V7.60547ZM194.531 0.457031H195.949V8.77734C195.941 8.88672 195.93 9.01172 195.914 9.15234C195.898 9.29297 195.887 9.42969 195.879 9.5625H194.531V0.457031ZM200.309 4.95703C200.402 5.31641 200.449 5.71094 200.449 6.14062C200.449 6.58594 200.395 7.01953 200.285 7.44141C200.184 7.86328 200.023 8.23828 199.805 8.56641C199.594 8.88672 199.324 9.14453 198.996 9.33984C198.676 9.52734 198.297 9.62109 197.859 9.62109C197.586 9.62109 197.324 9.58984 197.074 9.52734C196.824 9.46484 196.609 9.37891 196.43 9.26953V8.05078C196.547 8.18359 196.684 8.29297 196.84 8.37891C197.004 8.46484 197.184 8.50781 197.379 8.50781C197.613 8.50781 197.824 8.44922 198.012 8.33203C198.207 8.21484 198.371 8.05859 198.504 7.86328C198.645 7.66016 198.754 7.42188 198.832 7.14844C198.918 6.875 198.961 6.58203 198.961 6.26953C198.961 5.96484 198.922 5.67578 198.844 5.40234C198.773 5.12891 198.672 4.88672 198.539 4.67578C198.414 4.46484 198.258 4.29688 198.07 4.17188C197.883 4.04688 197.672 3.98438 197.438 3.98438C197.234 3.98438 197.047 4.02734 196.875 4.11328C196.711 4.19141 196.562 4.30859 196.43 4.46484V3.21094C196.609 3.10938 196.809 3.03125 197.027 2.97656C197.246 2.92188 197.473 2.89453 197.707 2.89453C197.965 2.89453 198.227 2.92969 198.492 3C198.758 3.07031 199.004 3.1875 199.23 3.35156C199.465 3.51562 199.676 3.73047 199.863 3.99609C200.059 4.26172 200.207 4.58203 200.309 4.95703ZM203.449 7.54688C203.449 7.8125 203.484 8.02344 203.555 8.17969C203.625 8.32812 203.723 8.44141 203.848 8.51953C203.973 8.58984 204.113 8.63672 204.27 8.66016C204.434 8.68359 204.609 8.69531 204.797 8.69531V9.5625C204.695 9.57812 204.59 9.58984 204.48 9.59766C204.395 9.60547 204.293 9.60938 204.176 9.60938C204.059 9.61719 203.941 9.62109 203.824 9.62109C203.707 9.62109 203.59 9.61719 203.473 9.60938C203.355 9.60156 203.25 9.58984 203.156 9.57422C202.891 9.51953 202.684 9.40234 202.535 9.22266C202.387 9.04297 202.273 8.84375 202.195 8.625C202.117 8.39844 202.066 8.17969 202.043 7.96875C202.027 7.75781 202.02 7.59375 202.02 7.47656V7.33594V0.457031H203.449V7.54688ZM209.367 2.89453C209.789 2.93359 210.168 3.04688 210.504 3.23438C210.848 3.42188 211.141 3.66406 211.383 3.96094C211.625 4.25781 211.809 4.59766 211.934 4.98047C212.066 5.36328 212.133 5.76172 212.133 6.17578C212.133 6.36328 212.121 6.55078 212.098 6.73828H208.078V5.70703H210.785C210.785 5.50391 210.75 5.30859 210.68 5.12109C210.617 4.93359 210.52 4.76172 210.387 4.60547C210.262 4.44141 210.113 4.30469 209.941 4.19531C209.77 4.08594 209.578 4.01953 209.367 3.99609V2.89453ZM209.32 8.46094C209.406 8.46094 209.512 8.45312 209.637 8.4375C209.77 8.41406 209.906 8.37891 210.047 8.33203C210.195 8.27734 210.34 8.21094 210.48 8.13281C210.629 8.05469 210.758 7.96094 210.867 7.85156L211.383 8.63672C211.125 8.95703 210.824 9.19922 210.48 9.36328C210.137 9.52734 209.699 9.60938 209.168 9.60938C208.738 9.60938 208.336 9.52344 207.961 9.35156C207.586 9.17188 207.266 8.92969 207 8.625C206.734 8.32031 206.523 7.96484 206.367 7.55859C206.211 7.15234 206.133 6.71484 206.133 6.24609C206.133 5.80078 206.203 5.37891 206.344 4.98047C206.492 4.58203 206.691 4.23438 206.941 3.9375C207.191 3.63281 207.48 3.38672 207.809 3.19922C208.145 3.01172 208.504 2.90625 208.887 2.88281V4.00781C208.598 4.0625 208.359 4.17969 208.172 4.35938C207.984 4.53906 207.836 4.74609 207.727 4.98047C207.625 5.20703 207.551 5.44141 207.504 5.68359C207.465 5.92578 207.445 6.13281 207.445 6.30469C207.445 6.60938 207.48 6.89453 207.551 7.16016C207.629 7.41797 207.746 7.64453 207.902 7.83984C208.059 8.02734 208.25 8.17969 208.477 8.29688C208.711 8.40625 208.992 8.46094 209.32 8.46094Z" fill="#C30A37"/>
</svg>
